<svg width="21" height="20" viewBox="0 0 21 20" fill="none" xmlns="http://www.w3.org/2000/svg">
<path fill-rule="evenodd" clip-rule="evenodd" d="M0.465088 6.16493C1.26098 3.56903 3.02537 1.36633 5.4033 0L5.52038 0.197719L5.72365 0.308652C4.06149 3.26373 3.84595 6.57718 5.24361 9.39021C6.88158 12.6713 10.5404 14.7301 14.8254 14.7302C16.7552 14.7212 18.6631 14.3279 20.4347 13.574L21 13.3334L20.7369 13.8819C19.6987 16.0467 16.5771 20 10.9064 20C6.71246 20 2.95995 17.697 1.11349 13.9918L1.11347 13.9918C-0.0991435 11.5573 -0.330805 8.76083 0.465088 6.16493ZM4.92533 0.843659C3.00919 2.16036 1.59017 4.07883 0.909997 6.29728C0.148068 8.7824 0.369844 11.4595 1.53071 13.7901C3.29902 17.3385 6.88964 19.5422 10.9064 19.5422C15.8822 19.5422 18.8119 16.3595 20.0303 14.2301C18.3701 14.8547 16.6075 15.1798 14.8269 15.188L14.8264 15.188H14.8258C10.3943 15.188 6.55536 13.0555 4.82644 9.59201L4.82625 9.59163C3.47282 6.86775 3.5642 3.71631 4.92533 0.843659Z" fill="black"/>
</svg>
