<?xml version="1.0" encoding="utf-8"?>
<!-- Generator: Adobe Illustrator 21.0.0, SVG Export Plug-In . SVG Version: 6.00 Build 0)  -->
<svg version="1.1"
	 id="svg2" inkscape:version="0.91 r13725" sodipodi:docname="SUN(black&amp;white).svg" xmlns:cc="http://creativecommons.org/ns#" xmlns:dc="http://purl.org/dc/elements/1.1/" xmlns:inkscape="http://www.inkscape.org/namespaces/inkscape" xmlns:rdf="http://www.w3.org/1999/02/22-rdf-syntax-ns#" xmlns:sodipodi="http://sodipodi.sourceforge.net/DTD/sodipodi-0.dtd" xmlns:svg="http://www.w3.org/2000/svg"
	 xmlns="http://www.w3.org/2000/svg" xmlns:xlink="http://www.w3.org/1999/xlink" x="0px" y="0px" viewBox="0 0 21 20"
	 style="enable-background:new 0 0 21 20;" xml:space="preserve">
<style type="text/css">
	.st0{display:none;}
	.st1{display:inline;fill:#00FFFF;stroke:#000000;stroke-width:7.4862;}
	.st2{fill:none;stroke:#000000;}
	.st3{display:inline;stroke:#000000;stroke-width:9;}
	.st4{display:inline;fill:#FF0000;stroke:#FF0000;stroke-width:9;}
</style>
<sodipodi:namedview  bordercolor="#666666" borderopacity="1.0" id="base" inkscape:current-layer="layer1" inkscape:cx="-20.757967" inkscape:cy="159.10134" inkscape:document-units="px" inkscape:pageopacity="0.0" inkscape:pageshadow="2" inkscape:snap-grids="true" inkscape:window-height="1017" inkscape:window-maximized="1" inkscape:window-width="1920" inkscape:window-x="-8" inkscape:window-y="-8" inkscape:zoom="1.4" pagecolor="#ffffff" showgrid="false" units="px">
	</sodipodi:namedview>
<g id="layer2" inkscape:groupmode="layer" inkscape:label="レイヤー 2" sodipodi:insensitive="true" class="st0">
	<circle id="path4201" class="st1" cx="10.4" cy="9.9" r="5.3"/>
</g>
<g id="layer1" transform="translate(0,-652.36216)" inkscape:groupmode="layer" inkscape:label="レイヤー 1">
	<ellipse id="path4141" class="st2" cx="10.4" cy="662.3" rx="4.9" ry="5"/>
	<path id="path4147" inkscape:connector-curvature="0" class="st2" d="M10.5,656.1v-3.7l0,0"/>
	<path id="path4147-8" inkscape:connector-curvature="0" class="st2" d="M10.5,672.3v-3.7l0,0"/>
	<path id="path4147-4" inkscape:connector-curvature="0" class="st2" d="M16.6,662.3h3.7l0,0"/>
	<path id="path4147-4-2" inkscape:connector-curvature="0" class="st2" d="M0.5,662.2h3.7l0,0"/>
	<path id="path4147-3" inkscape:connector-curvature="0" class="st2" d="M3.3,655.4l2.6,2.6l0,0"/>
	<path id="path4147-3-3" inkscape:connector-curvature="0" class="st2" d="M14.9,666.7l2.6,2.6l0,0"/>
	<path id="path4147-3-9" inkscape:connector-curvature="0" class="st2" d="M14.9,658l2.6-2.6l0,0"/>
	<path id="path4147-3-9-6" inkscape:connector-curvature="0" class="st2" d="M3.3,669.2l2.6-2.6l0,0"/>
</g>
<g id="layer3" inkscape:groupmode="layer" inkscape:label="レイヤー 3" sodipodi:insensitive="true" class="st0">
	<ellipse id="path4271" class="st3" cx="8.4" cy="9.7" rx="1.1" ry="1.1"/>
	<ellipse id="path4271-7" class="st3" cx="12.5" cy="9.6" rx="1.1" ry="1.1"/>
	
		<path id="path4292" sodipodi:cx="196.78572" sodipodi:cy="231.42857" sodipodi:end="3.1415927" sodipodi:open="true" sodipodi:rx="35.357143" sodipodi:ry="34.285713" sodipodi:start="0" sodipodi:type="arc" class="st4" d="
		M12.1,11.6c0,0.6-0.3,1.2-0.9,1.5c-0.5,0.3-1.2,0.3-1.8,0c-0.5-0.3-0.9-0.9-0.9-1.5"/>
</g>
</svg>
